<svg width="18" height="18" viewBox="0 0 18 18" fill="none" xmlns="http://www.w3.org/2000/svg">
<g clip-path="url(#clip0_1334_559)">
<path d="M14.9488 3.01669C13.4357 1.50357 11.3454 0.567566 9.03637 0.567566C4.41881 0.567566 0.674805 4.311 0.674805 8.92913C0.674805 10.4659 1.08937 11.9053 1.81218 13.1428L1.7908 13.1034L0.604492 17.4358L5.03643 16.2731C6.19012 16.9138 7.56655 17.2907 9.0313 17.2907H9.03468C13.6522 17.289 17.3946 13.545 17.3946 8.92744C17.3946 6.6195 16.4597 4.53038 14.9482 3.01725L14.9488 3.01669ZM9.03468 15.8783H9.03187C7.72743 15.8783 6.50624 15.5183 5.46393 14.8922L5.49543 14.9096L5.24174 14.7594L2.61205 15.4496L3.31349 12.8852L3.14812 12.6225C2.48155 11.5751 2.08555 10.2988 2.08555 8.92969C2.08555 5.09232 5.19674 1.98113 9.03412 1.98113C12.8715 1.98113 15.9827 5.09232 15.9827 8.92969C15.9827 12.7671 12.8726 15.8783 9.03468 15.8783ZM12.8462 10.6746C12.6375 10.5699 11.6104 10.0654 11.4191 9.99506C11.2273 9.92531 11.0878 9.891 10.9483 10.1003C10.8099 10.3089 10.4094 10.7792 10.2874 10.9187C10.1659 11.0588 10.0432 11.0756 9.83455 10.9716C9.18768 10.7094 8.63193 10.3601 8.14874 9.92982L8.15437 9.93488C7.70493 9.51863 7.31962 9.04219 7.00855 8.51682L6.9928 8.48757C6.8713 8.27888 6.97987 8.16582 7.08393 8.06175C7.17787 7.96838 7.29318 7.81763 7.39724 7.69613C7.47937 7.59544 7.54968 7.48013 7.60312 7.35638L7.60649 7.34682C7.63068 7.29788 7.64474 7.24107 7.64474 7.18032C7.64474 7.10663 7.62393 7.038 7.58793 6.9795L7.58905 6.98119C7.53618 6.87657 7.1188 5.84832 6.94499 5.42982C6.77512 5.02257 6.60243 5.07825 6.47474 5.0715C6.35324 5.06588 6.21374 5.06475 6.07424 5.06475C5.85205 5.07038 5.65462 5.1705 5.51849 5.32519L5.51793 5.32632C5.06681 5.75438 4.78668 6.35794 4.78668 7.02675C4.78668 7.04138 4.78668 7.05657 4.78724 7.07119V7.06894C4.86093 7.89413 5.1703 8.63494 5.64618 9.2385L5.63943 9.23007C6.54168 10.5683 7.7443 11.6387 9.15562 12.3598L9.20849 12.384C9.51674 12.5235 9.91162 12.6726 10.3155 12.8003L10.3993 12.8233C10.6479 12.9021 10.9342 12.9476 11.2312 12.9476C11.4017 12.9476 11.5693 12.9324 11.7313 12.9038L11.7139 12.906C12.3152 12.7806 12.8141 12.4178 13.1184 11.9222L13.1235 11.9126C13.2163 11.7068 13.2703 11.4666 13.2703 11.214C13.2703 11.1099 13.2613 11.0081 13.2439 10.9091L13.2456 10.9198C13.1938 10.8326 13.0543 10.7809 12.8451 10.6757L12.8462 10.6746Z" fill="url(#paint0_linear_1334_559)"/>
</g>
<defs>
<linearGradient id="paint0_linear_1334_559" x1="8.99952" y1="0.567566" x2="8.99952" y2="17.4358" gradientUnits="userSpaceOnUse">
<stop stop-color="#0094FF"/>
<stop offset="1" stop-color="#9747FF"/>
</linearGradient>
<clipPath id="clip0_1334_559">
<rect width="18" height="18" fill="white"/>
</clipPath>
</defs>
</svg>
