<svg width="29" height="28" viewBox="0 0 29 28" fill="none" xmlns="http://www.w3.org/2000/svg">
<path d="M23.4607 2.23999H5.54072C3.99512 2.23999 2.74072 3.49439 2.74072 5.03999V22.96C2.74072 24.5056 3.99512 25.76 5.54072 25.76H23.4607C25.0063 25.76 26.2607 24.5056 26.2607 22.96V5.03999C26.2607 3.49439 25.0063 2.23999 23.4607 2.23999ZM10.0207 11.2V21.84H6.66072V11.2H10.0207ZM6.66072 8.10319C6.66072 7.31919 7.33272 6.71999 8.34072 6.71999C9.34872 6.71999 9.98152 7.31919 10.0207 8.10319C10.0207 8.88719 9.39352 9.51999 8.34072 9.51999C7.33272 9.51999 6.66072 8.88719 6.66072 8.10319ZM22.3407 21.84H18.9807C18.9807 21.84 18.9807 16.6544 18.9807 16.24C18.9807 15.12 18.4207 14 17.0207 13.9776H16.9759C15.6207 13.9776 15.0607 15.1312 15.0607 16.24C15.0607 16.7496 15.0607 21.84 15.0607 21.84H11.7007V11.2H15.0607V12.6336C15.0607 12.6336 16.1415 11.2 18.3143 11.2C20.5375 11.2 22.3407 12.7288 22.3407 15.8256V21.84Z" fill="#0094FF"/>
</svg>
