<svg width="29" height="28" viewBox="0 0 29 28" fill="none" xmlns="http://www.w3.org/2000/svg">
<path d="M9.45969 1.68C5.44449 1.68 2.17969 4.9448 2.17969 8.96V19.04C2.17969 23.0552 5.44449 26.32 9.45969 26.32H19.5397C23.5549 26.32 26.8197 23.0552 26.8197 19.04V8.96C26.8197 4.9448 23.5549 1.68 19.5397 1.68H9.45969ZM21.2197 6.16C21.8357 6.16 22.3397 6.664 22.3397 7.28C22.3397 7.896 21.8357 8.4 21.2197 8.4C20.6037 8.4 20.0997 7.896 20.0997 7.28C20.0997 6.664 20.6037 6.16 21.2197 6.16ZM14.4997 7.84C17.8989 7.84 20.6597 10.6008 20.6597 14C20.6597 17.3992 17.8989 20.16 14.4997 20.16C11.1005 20.16 8.33969 17.3992 8.33969 14C8.33969 10.6008 11.1005 7.84 14.4997 7.84ZM14.4997 8.96C11.7221 8.96 9.45969 11.2224 9.45969 14C9.45969 16.7776 11.7221 19.04 14.4997 19.04C17.2773 19.04 19.5397 16.7776 19.5397 14C19.5397 11.2224 17.2773 8.96 14.4997 8.96Z" fill="#0094FF"/>
</svg>
