<svg width="24" height="15" viewBox="0 0 24 15" fill="none" xmlns="http://www.w3.org/2000/svg">
<g clip-path="url(#clip0_1213_3678)">
<path d="M6.04314 14.1197C5.14641 14.1197 4.3541 14.0031 3.66621 13.7697C2.99059 13.5362 2.41939 13.1923 1.95261 12.7378C1.48582 12.271 1.13573 11.6937 0.902336 11.0058C0.668943 10.3179 0.552246 9.51941 0.552246 8.61043V1.99556C0.552246 1.5902 0.650518 1.28923 0.847059 1.0927C1.05588 0.896154 1.3507 0.797885 1.7315 0.797885C2.1123 0.797885 2.40097 0.896154 2.59751 1.0927C2.80633 1.28923 2.91075 1.5902 2.91075 1.99556V8.592C2.91075 9.75894 3.17485 10.6373 3.70306 11.2269C4.24355 11.8042 5.02358 12.0929 6.04314 12.0929C7.0627 12.0929 7.83656 11.8042 8.36479 11.2269C8.89302 10.6373 9.1571 9.75894 9.1571 8.592V1.99556C9.1571 1.5902 9.25534 1.28923 9.45191 1.0927C9.66071 0.896154 9.95552 0.797885 10.3363 0.797885C10.7049 0.797885 10.9874 0.896154 11.1839 1.0927C11.3927 1.28923 11.4972 1.5902 11.4972 1.99556V8.61043C11.4972 9.81422 11.2884 10.8276 10.8707 11.6507C10.4653 12.4737 9.85728 13.094 9.04654 13.5117C8.23581 13.9171 7.23467 14.1197 6.04314 14.1197ZM18.7253 14.1197C18.1848 14.1197 17.6443 14.0768 17.1038 13.9908C16.5633 13.9171 16.0535 13.8004 15.5745 13.6407C15.0954 13.4687 14.6655 13.2598 14.2847 13.0142C14.0635 12.8668 13.91 12.6886 13.824 12.4798C13.738 12.271 13.7073 12.0684 13.7319 11.8718C13.7687 11.663 13.8486 11.4849 13.9714 11.3374C14.1065 11.1777 14.2724 11.0795 14.4689 11.0426C14.6655 11.0058 14.8804 11.0611 15.1138 11.2085C15.6543 11.5278 16.2255 11.7612 16.8274 11.9086C17.4294 12.0561 18.0619 12.1298 18.7253 12.1298C19.6957 12.1298 20.402 11.97 20.8442 11.6507C21.2865 11.319 21.5076 10.8952 21.5076 10.3793C21.5076 9.9494 21.3479 9.61154 21.0285 9.36589C20.7214 9.12023 20.187 8.91755 19.4255 8.75783L17.3986 8.33404C16.2317 8.08839 15.3595 7.67685 14.7822 7.09951C14.2171 6.50989 13.9346 5.736 13.9346 4.77786C13.9346 4.17595 14.0574 3.62932 14.3031 3.13796C14.5487 2.64661 14.8927 2.22281 15.3349 1.86658C15.7895 1.51035 16.3238 1.2401 16.938 1.05585C17.5645 0.859302 18.2523 0.761032 19.0017 0.761032C19.7387 0.761032 20.4389 0.853163 21.1022 1.03742C21.7655 1.22168 22.3613 1.49192 22.8895 1.84816C23.0861 1.98328 23.2151 2.14911 23.2765 2.34565C23.3502 2.5422 23.3686 2.73873 23.3317 2.93528C23.2949 3.11954 23.2089 3.27923 23.0738 3.41435C22.9387 3.54947 22.7666 3.62932 22.5578 3.65389C22.3613 3.67845 22.1341 3.61703 21.8761 3.46963C21.4216 3.21167 20.9609 3.02741 20.4942 2.91685C20.0274 2.8063 19.5237 2.75102 18.9832 2.75102C18.4182 2.75102 17.933 2.83086 17.5276 2.99056C17.1222 3.15025 16.809 3.3775 16.5879 3.67231C16.3791 3.95484 16.2746 4.29265 16.2746 4.68573C16.2746 5.12795 16.4221 5.48418 16.7169 5.75443C17.0117 6.01239 17.5153 6.21507 18.2278 6.36248L20.2362 6.78627C21.4523 7.04423 22.3552 7.4496 22.9448 8.00238C23.5467 8.55515 23.8477 9.29218 23.8477 10.2135C23.8477 10.8031 23.7248 11.3374 23.4791 11.8165C23.2457 12.2956 22.9018 12.7071 22.4473 13.051C22.0051 13.395 21.4707 13.6591 20.8442 13.8434C20.2178 14.0276 19.5115 14.1197 18.7253 14.1197Z" fill="#0094FF"/>
</g>
<defs>
<clipPath id="clip0_1213_3678">
<rect width="24" height="14.7097" fill="white"/>
</clipPath>
</defs>
</svg>
