<svg width="24" height="15" viewBox="0 0 24 15" fill="none" xmlns="http://www.w3.org/2000/svg">
<g clip-path="url(#clip0_1334_548)">
<mask id="mask0_1334_548" style="mask-type:luminance" maskUnits="userSpaceOnUse" x="0" y="0" width="24" height="15">
<path d="M24 0H0V14.7097H24V0Z" fill="white"/>
</mask>
<g mask="url(#mask0_1334_548)">
<path d="M6.04314 14.1197C5.14641 14.1197 4.3541 14.0031 3.66621 13.7697C2.99059 13.5362 2.41939 13.1923 1.95261 12.7378C1.48582 12.271 1.13573 11.6937 0.902336 11.0058C0.668943 10.3179 0.552246 9.51939 0.552246 8.61041V1.99554C0.552246 1.59018 0.650518 1.28921 0.847059 1.09268C1.05588 0.896139 1.3507 0.79787 1.7315 0.79787C2.1123 0.79787 2.40097 0.896139 2.59751 1.09268C2.80633 1.28921 2.91075 1.59018 2.91075 1.99554V8.59198C2.91075 9.75892 3.17485 10.6373 3.70306 11.2269C4.24355 11.8042 5.02358 12.0929 6.04314 12.0929C7.0627 12.0929 7.83656 11.8042 8.36479 11.2269C8.89302 10.6373 9.1571 9.75892 9.1571 8.59198V1.99554C9.1571 1.59018 9.25534 1.28921 9.45191 1.09268C9.66071 0.896139 9.95552 0.79787 10.3363 0.79787C10.7049 0.79787 10.9874 0.896139 11.1839 1.09268C11.3927 1.28921 11.4972 1.59018 11.4972 1.99554V8.61041C11.4972 9.8142 11.2884 10.8276 10.8707 11.6507C10.4653 12.4737 9.85728 13.094 9.04654 13.5117C8.23581 13.9171 7.23467 14.1197 6.04314 14.1197ZM18.7253 14.1197C18.1848 14.1197 17.6443 14.0768 17.1038 13.9908C16.5633 13.9171 16.0535 13.8004 15.5745 13.6407C15.0954 13.4687 14.6655 13.2598 14.2847 13.0142C14.0635 12.8668 13.91 12.6886 13.824 12.4798C13.738 12.271 13.7073 12.0684 13.7319 11.8718C13.7687 11.663 13.8486 11.4849 13.9714 11.3374C14.1065 11.1777 14.2724 11.0795 14.4689 11.0426C14.6655 11.0058 14.8804 11.0611 15.1138 11.2085C15.6543 11.5278 16.2255 11.7612 16.8274 11.9086C17.4294 12.0561 18.0619 12.1298 18.7253 12.1298C19.6957 12.1298 20.402 11.97 20.8442 11.6507C21.2865 11.319 21.5076 10.8952 21.5076 10.3793C21.5076 9.94938 21.3479 9.61152 21.0285 9.36587C20.7214 9.12021 20.187 8.91753 19.4255 8.75781L17.3986 8.33402C16.2317 8.08837 15.3595 7.67683 14.7822 7.09949C14.2171 6.50987 13.9346 5.73598 13.9346 4.77784C13.9346 4.17593 14.0574 3.6293 14.3031 3.13794C14.5487 2.64659 14.8927 2.22279 15.3349 1.86656C15.7895 1.51033 16.3238 1.24008 16.938 1.05583C17.5645 0.859287 18.2523 0.761017 19.0017 0.761017C19.7387 0.761017 20.4389 0.853148 21.1022 1.0374C21.7655 1.22166 22.3613 1.4919 22.8895 1.84814C23.0861 1.98326 23.2151 2.14909 23.2765 2.34563C23.3502 2.54218 23.3686 2.73872 23.3317 2.93527C23.2949 3.11953 23.2089 3.27921 23.0738 3.41433C22.9387 3.54945 22.7666 3.6293 22.5578 3.65387C22.3613 3.67843 22.1341 3.61701 21.8761 3.46961C21.4216 3.21165 20.9609 3.02739 20.4942 2.91683C20.0274 2.80628 19.5237 2.751 18.9832 2.751C18.4182 2.751 17.933 2.83084 17.5276 2.99054C17.1222 3.15023 16.809 3.37749 16.5879 3.6723C16.3791 3.95483 16.2746 4.29263 16.2746 4.68571C16.2746 5.12793 16.4221 5.48416 16.7169 5.75441C17.0117 6.01237 17.5153 6.21505 18.2278 6.36246L20.2362 6.78625C21.4523 7.04421 22.3552 7.44959 22.9448 8.00237C23.5467 8.55514 23.8477 9.29216 23.8477 10.2135C23.8477 10.8031 23.7248 11.3374 23.4791 11.8165C23.2457 12.2956 22.9018 12.7071 22.4473 13.051C22.0051 13.395 21.4707 13.6591 20.8442 13.8434C20.2178 14.0276 19.5115 14.1197 18.7253 14.1197Z" fill="url(#paint0_linear_1334_548)"/>
</g>
</g>
<defs>
<linearGradient id="paint0_linear_1334_548" x1="12.2" y1="0.761017" x2="12.2" y2="14.1197" gradientUnits="userSpaceOnUse">
<stop stop-color="#0094FF"/>
<stop offset="1" stop-color="#9747FF"/>
</linearGradient>
<clipPath id="clip0_1334_548">
<rect width="24" height="15" fill="white"/>
</clipPath>
</defs>
</svg>
