<svg width="800" height="800" viewBox="0 0 800 800" fill="none" xmlns="http://www.w3.org/2000/svg">
<path d="M399.993 310.667C439.66 310.667 471.993 278.333 471.993 238.667C471.993 199 439.66 166.667 399.993 166.667C360.327 166.667 327.995 199 327.995 238.667C327.995 278.333 360.327 310.667 399.993 310.667Z" stroke="#0094FF" stroke-width="50" stroke-linecap="round" stroke-linejoin="round"/>
<path opacity="0.4" d="M226.329 633.34C265.996 633.34 298.329 601.007 298.329 561.34C298.329 521.673 265.996 489.34 226.329 489.34C186.662 489.34 154.329 521.673 154.329 561.34C154.329 601.007 186.329 633.34 226.329 633.34Z" stroke="#0094FF" stroke-width="50" stroke-linecap="round" stroke-linejoin="round"/>
<path d="M573.66 633.34C613.327 633.34 645.66 601.007 645.66 561.34C645.66 521.673 613.327 489.34 573.66 489.34C533.994 489.34 501.66 521.673 501.66 561.34C501.66 601.007 533.994 633.34 573.66 633.34Z" stroke="#0094FF" stroke-width="50" stroke-linecap="round" stroke-linejoin="round"/>
</svg>
