<svg width="500" height="500" viewBox="0 0 500 500" fill="none" xmlns="http://www.w3.org/2000/svg">
<g clip-path="url(#clip0_1416_584)">
<path d="M192.982 298.373H179.87V321.421H148.108V298.373H100.627V274.754L150.144 202.352H179.871V274.347H192.983V298.373H192.982ZM148.108 274.347V260.502C148.108 257.896 148.202 254.382 148.393 249.955C148.582 245.531 148.731 243.209 148.841 242.992H147.945C146.099 247.173 144.008 251.083 141.674 254.72L128.48 274.347H148.108Z" fill="#C482FF"/>
<path d="M287.373 262.049C287.373 283.116 283.843 298.549 276.786 308.35C269.728 318.15 258.922 323.049 244.373 323.049C230.147 323.049 219.424 317.933 212.203 307.697C204.981 297.464 201.371 282.246 201.371 262.048C201.371 240.873 204.9 225.346 211.959 215.463C219.016 205.582 229.822 200.641 244.373 200.641C258.544 200.641 269.253 205.786 276.501 216.074C283.749 226.365 287.373 241.688 287.373 262.049ZM233.377 262.049C233.377 275.515 234.218 284.772 235.902 289.821C237.584 294.87 240.408 297.395 244.372 297.395C248.389 297.395 251.225 294.789 252.882 289.576C254.538 284.364 255.366 275.189 255.366 262.049C255.366 248.856 254.524 239.611 252.842 234.318C251.158 229.024 248.334 226.378 244.372 226.378C240.408 226.378 237.584 228.931 235.902 234.033C234.218 239.137 233.377 248.475 233.377 262.049Z" fill="#C482FF"/>
<path d="M388.442 298.373H375.331V321.421H343.568V298.373H296.087V274.754L345.604 202.352H375.331V274.347H388.442V298.373ZM343.568 274.347V260.502C343.568 257.896 343.662 254.382 343.853 249.955C344.042 245.531 344.191 243.209 344.301 242.992H343.405C341.559 247.173 339.467 251.083 337.134 254.72L323.941 274.347H343.568Z" fill="#C482FF"/>
<path d="M52.9031 228.771H101.04" stroke="#DAEFFF" stroke-width="2.1628" stroke-miterlimit="10" stroke-linecap="round" stroke-linejoin="round"/>
<path d="M112.594 228.771H122.87" stroke="#DAEFFF" stroke-width="2.1628" stroke-miterlimit="10" stroke-linecap="round" stroke-linejoin="round"/>
<path d="M44.186 215.223H130.361" stroke="#DAEFFF" stroke-width="2.1628" stroke-miterlimit="10" stroke-linecap="round" stroke-linejoin="round"/>
<path d="M37.093 215.223H30" stroke="#DAEFFF" stroke-width="2.1628" stroke-miterlimit="10" stroke-linecap="round" stroke-linejoin="round"/>
<path d="M44.186 202.352H72.796" stroke="#DAEFFF" stroke-width="2.1628" stroke-miterlimit="10" stroke-linecap="round" stroke-linejoin="round"/>
<path d="M80.4561 202.352H140.541" stroke="#DAEFFF" stroke-width="2.1628" stroke-miterlimit="10" stroke-linecap="round" stroke-linejoin="round"/>
<path d="M393.162 336.259H444.674" stroke="#DAEFFF" stroke-width="2.1628" stroke-miterlimit="10" stroke-linecap="round" stroke-linejoin="round"/>
<path d="M453.052 336.259H460.503" stroke="#DAEFFF" stroke-width="2.1628" stroke-miterlimit="10" stroke-linecap="round" stroke-linejoin="round"/>
<path d="M403.449 322.71H470.956" stroke="#DAEFFF" stroke-width="2.1628" stroke-miterlimit="10" stroke-linecap="round" stroke-linejoin="round"/>
<path d="M398.305 322.71H393.162" stroke="#DAEFFF" stroke-width="2.1628" stroke-miterlimit="10" stroke-linecap="round" stroke-linejoin="round"/>
<path d="M393.162 309.839H424.194" stroke="#DAEFFF" stroke-width="2.1628" stroke-miterlimit="10" stroke-linecap="round" stroke-linejoin="round"/>
<path d="M429.748 309.839H453.052" stroke="#DAEFFF" stroke-width="2.1628" stroke-miterlimit="10" stroke-linecap="round" stroke-linejoin="round"/>
<path d="M199.147 297.918H186.035V320.966H154.273V297.918H106.792V274.299L156.309 201.897H186.036V273.892H199.148L199.147 297.918ZM154.272 273.892V260.047C154.272 257.441 154.366 253.927 154.557 249.5C154.746 245.076 154.895 242.754 155.005 242.537H154.109C152.263 246.718 150.172 250.628 147.838 254.265L134.644 273.892H154.272Z" stroke="#DAEFFF" stroke-width="3.2675" stroke-miterlimit="10"/>
<path d="M293.537 261.594C293.537 282.661 290.007 298.094 282.95 307.895C275.892 317.695 265.086 322.594 250.537 322.594C236.311 322.594 225.588 317.478 218.367 307.242C211.145 297.009 207.535 281.791 207.535 261.593C207.535 240.418 211.064 224.891 218.122 215.008C225.179 205.127 235.985 200.186 250.536 200.186C264.707 200.186 275.416 205.331 282.664 215.619C289.914 225.91 293.537 241.234 293.537 261.594ZM239.542 261.594C239.542 275.06 240.383 284.317 242.067 289.366C243.749 294.415 246.573 296.94 250.537 296.94C254.554 296.94 257.39 294.334 259.047 289.121C260.703 283.909 261.531 274.734 261.531 261.593C261.531 248.4 260.689 239.155 259.007 233.862C257.323 228.568 254.499 225.922 250.537 225.922C246.573 225.922 243.749 228.475 242.067 233.577C240.383 238.682 239.542 248.021 239.542 261.594Z" stroke="#DAEFFF" stroke-width="3.2675" stroke-miterlimit="10"/>
<path d="M394.607 297.918H381.495V320.966H349.733V297.918H302.252V274.299L351.769 201.897H381.496V273.892H394.608L394.607 297.918ZM349.733 273.892V260.047C349.733 257.441 349.827 253.927 350.018 249.5C350.207 245.076 350.356 242.754 350.466 242.537H349.57C347.724 246.718 345.632 250.628 343.299 254.265L330.106 273.892H349.733Z" stroke="#DAEFFF" stroke-width="3.2675" stroke-miterlimit="10"/>
<path d="M190.81 371.95V344.906H207.132V347.811H194.085V356.949H206.287V359.854H194.085V369.044H207.343V371.95H190.81ZM213.034 371.95V344.906H222.172C224.285 344.906 226.019 345.266 227.375 345.988C228.731 346.701 229.734 347.683 230.386 348.933C231.037 350.183 231.363 351.605 231.363 353.198C231.363 354.792 231.037 356.205 230.386 357.437C229.734 358.67 228.735 359.638 227.388 360.342C226.041 361.038 224.32 361.385 222.225 361.385H214.83V358.428H222.12C223.563 358.428 224.725 358.216 225.606 357.794C226.495 357.371 227.137 356.773 227.534 355.998C227.939 355.214 228.141 354.281 228.141 353.198C228.141 352.116 227.939 351.169 227.534 350.359C227.129 349.549 226.482 348.924 225.592 348.484C224.703 348.035 223.528 347.811 222.067 347.811H216.309V371.95H213.034ZM225.764 359.801L232.419 371.95H228.616L222.067 359.801H225.764ZM236.82 371.95V344.906H245.958C248.071 344.906 249.805 345.266 251.161 345.988C252.516 346.701 253.52 347.683 254.172 348.933C254.823 350.183 255.149 351.605 255.149 353.198C255.149 354.792 254.823 356.205 254.172 357.437C253.52 358.67 252.521 359.638 251.174 360.342C249.827 361.038 248.106 361.385 246.011 361.385H238.616V358.428H245.905C247.349 358.428 248.511 358.216 249.391 357.794C250.28 357.371 250.923 356.773 251.319 355.998C251.724 355.214 251.927 354.281 251.927 353.198C251.927 352.116 251.724 351.169 251.319 350.359C250.914 349.549 250.267 348.924 249.378 348.484C248.489 348.035 247.314 347.811 245.852 347.811H240.095V371.95H236.82ZM249.55 359.801L256.205 371.95H252.402L245.852 359.801H249.55ZM283.424 358.428C283.424 361.28 282.909 363.745 281.879 365.822C280.849 367.9 279.436 369.502 277.64 370.629C275.844 371.756 273.793 372.319 271.487 372.319C269.18 372.319 267.129 371.756 265.333 370.629C263.537 369.502 262.124 367.9 261.094 365.822C260.064 363.745 259.549 361.28 259.549 358.428C259.549 355.575 260.064 353.11 261.094 351.033C262.124 348.955 263.537 347.353 265.333 346.226C267.129 345.099 269.18 344.536 271.487 344.536C273.793 344.536 275.844 345.099 277.64 346.226C279.436 347.353 280.849 348.955 281.879 351.033C282.909 353.11 283.424 355.575 283.424 358.428ZM280.255 358.428C280.255 356.086 279.863 354.109 279.08 352.498C278.305 350.887 277.253 349.668 275.924 348.841C274.603 348.013 273.124 347.599 271.487 347.599C269.849 347.599 268.366 348.013 267.037 348.841C265.716 349.668 264.664 350.887 263.881 352.498C263.106 354.109 262.719 356.086 262.719 358.428C262.719 360.769 263.106 362.746 263.881 364.357C264.664 365.968 265.716 367.187 267.037 368.014C268.366 368.842 269.849 369.256 271.487 369.256C273.124 369.256 274.603 368.842 275.924 368.014C277.253 367.187 278.305 365.968 279.08 364.357C279.863 362.746 280.255 360.769 280.255 358.428ZM288.931 371.95V344.906H298.069C300.181 344.906 301.916 345.266 303.271 345.988C304.627 346.701 305.631 347.683 306.282 348.933C306.934 350.183 307.259 351.605 307.259 353.198C307.259 354.792 306.934 356.205 306.282 357.437C305.631 358.67 304.631 359.638 303.285 360.342C301.938 361.038 300.217 361.385 298.121 361.385H290.726V358.428H298.016C299.459 358.428 300.621 358.216 301.502 357.794C302.391 357.371 303.034 356.773 303.43 355.998C303.835 355.214 304.037 354.281 304.037 353.198C304.037 352.116 303.835 351.169 303.43 350.359C303.025 349.549 302.378 348.924 301.489 348.484C300.599 348.035 299.424 347.811 297.963 347.811H292.205V371.95H288.931ZM301.66 359.801L308.316 371.95H304.513L297.963 359.801H301.66Z" fill="#DAEFFF"/>
<path d="M415.642 225.835V214.796" stroke="#DAEFFF" stroke-width="2.1628" stroke-miterlimit="10" stroke-linecap="round" stroke-linejoin="round"/>
<path d="M407.936 229.027L400.131 221.221" stroke="#DAEFFF" stroke-width="2.1628" stroke-miterlimit="10" stroke-linecap="round" stroke-linejoin="round"/>
<path d="M404.745 236.733H393.706" stroke="#DAEFFF" stroke-width="2.1628" stroke-miterlimit="10" stroke-linecap="round" stroke-linejoin="round"/>
<path d="M407.936 244.438L400.131 252.244" stroke="#DAEFFF" stroke-width="2.1628" stroke-miterlimit="10" stroke-linecap="round" stroke-linejoin="round"/>
<path d="M415.642 247.63V258.669" stroke="#DAEFFF" stroke-width="2.1628" stroke-miterlimit="10" stroke-linecap="round" stroke-linejoin="round"/>
<path d="M423.348 244.438L431.154 252.244" stroke="#DAEFFF" stroke-width="2.1628" stroke-miterlimit="10" stroke-linecap="round" stroke-linejoin="round"/>
<path d="M426.54 236.733H437.579" stroke="#DAEFFF" stroke-width="2.1628" stroke-miterlimit="10" stroke-linecap="round" stroke-linejoin="round"/>
<path d="M423.348 229.027L431.154 221.221" stroke="#DAEFFF" stroke-width="2.1628" stroke-miterlimit="10" stroke-linecap="round" stroke-linejoin="round"/>
<path d="M69.4141 280.801V272.822" stroke="#DAEFFF" stroke-width="2.1628" stroke-miterlimit="10" stroke-linecap="round" stroke-linejoin="round"/>
<path d="M63.8442 283.109L58.2021 277.467" stroke="#DAEFFF" stroke-width="2.1628" stroke-miterlimit="10" stroke-linecap="round" stroke-linejoin="round"/>
<path d="M61.5371 288.679H53.5581" stroke="#DAEFFF" stroke-width="2.1628" stroke-miterlimit="10" stroke-linecap="round" stroke-linejoin="round"/>
<path d="M63.8442 294.249L58.2021 299.891" stroke="#DAEFFF" stroke-width="2.1628" stroke-miterlimit="10" stroke-linecap="round" stroke-linejoin="round"/>
<path d="M69.4141 296.556V304.535" stroke="#DAEFFF" stroke-width="2.1628" stroke-miterlimit="10" stroke-linecap="round" stroke-linejoin="round"/>
<path d="M74.9841 294.249L80.6261 299.891" stroke="#DAEFFF" stroke-width="2.1628" stroke-miterlimit="10" stroke-linecap="round" stroke-linejoin="round"/>
<path d="M77.291 288.679H85.271" stroke="#DAEFFF" stroke-width="2.1628" stroke-miterlimit="10" stroke-linecap="round" stroke-linejoin="round"/>
<path d="M74.9841 283.109L80.6261 277.467" stroke="#DAEFFF" stroke-width="2.1628" stroke-miterlimit="10" stroke-linecap="round" stroke-linejoin="round"/>
<path d="M285.336 115.989V108.009" stroke="#DAEFFF" stroke-width="2.1628" stroke-miterlimit="10" stroke-linecap="round" stroke-linejoin="round"/>
<path d="M279.766 118.296L274.124 112.654" stroke="#DAEFFF" stroke-width="2.1628" stroke-miterlimit="10" stroke-linecap="round" stroke-linejoin="round"/>
<path d="M277.459 123.866H269.48" stroke="#DAEFFF" stroke-width="2.1628" stroke-miterlimit="10" stroke-linecap="round" stroke-linejoin="round"/>
<path d="M279.766 129.436L274.124 135.078" stroke="#DAEFFF" stroke-width="2.1628" stroke-miterlimit="10" stroke-linecap="round" stroke-linejoin="round"/>
<path d="M285.336 131.743V139.722" stroke="#DAEFFF" stroke-width="2.1628" stroke-miterlimit="10" stroke-linecap="round" stroke-linejoin="round"/>
<path d="M290.906 129.436L296.548 135.078" stroke="#DAEFFF" stroke-width="2.1628" stroke-miterlimit="10" stroke-linecap="round" stroke-linejoin="round"/>
<path d="M293.213 123.866H301.192" stroke="#DAEFFF" stroke-width="2.1628" stroke-miterlimit="10" stroke-linecap="round" stroke-linejoin="round"/>
<path d="M290.906 118.296L296.548 112.654" stroke="#DAEFFF" stroke-width="2.1628" stroke-miterlimit="10" stroke-linecap="round" stroke-linejoin="round"/>
<path d="M382.788 337.629H109.027V380.727H382.788V337.629Z" stroke="#DAEFFF" stroke-width="2.4187" stroke-miterlimit="10" stroke-linecap="round" stroke-linejoin="round"/>
<path d="M130.361 182.933V148.404H309.854V225.124" stroke="#DAEFFF" stroke-width="2.1628" stroke-miterlimit="10" stroke-linecap="round" stroke-linejoin="round"/>
<path d="M246.589 123.866V167.096H365.617V186.764" stroke="#DAEFFF" stroke-width="2.1628" stroke-miterlimit="10" stroke-linecap="round" stroke-linejoin="round"/>
<path d="M134.644 187.216C134.644 189.582 132.726 191.499 130.361 191.499C127.995 191.499 126.078 189.581 126.078 187.216C126.078 184.851 127.996 182.933 130.361 182.933C132.727 182.933 134.644 184.85 134.644 187.216Z" stroke="#DAEFFF" stroke-width="2.1628" stroke-miterlimit="10" stroke-linecap="round" stroke-linejoin="round"/>
<path d="M246.589 123.866C248.954 123.866 250.872 121.948 250.872 119.583C250.872 117.217 248.954 115.3 246.589 115.3C244.223 115.3 242.306 117.217 242.306 119.583C242.306 121.948 244.223 123.866 246.589 123.866Z" stroke="#DAEFFF" stroke-width="2.1628" stroke-miterlimit="10" stroke-linecap="round" stroke-linejoin="round"/>
<path d="M369.9 191.499C369.9 193.864 367.982 195.782 365.617 195.782C363.251 195.782 361.334 193.864 361.334 191.499C361.334 189.133 363.252 187.216 365.617 187.216C367.982 187.216 369.9 189.134 369.9 191.499Z" stroke="#DAEFFF" stroke-width="2.1628" stroke-miterlimit="10" stroke-linecap="round" stroke-linejoin="round"/>
<path d="M314.137 230.118C314.137 232.483 312.219 234.401 309.854 234.401C307.489 234.401 305.571 232.483 305.571 230.118C305.571 227.752 307.489 225.835 309.854 225.835C312.219 225.835 314.137 227.753 314.137 230.118Z" stroke="#DAEFFF" stroke-width="2.1628" stroke-miterlimit="10" stroke-linecap="round" stroke-linejoin="round"/>
<path d="M102.448 315.899L92.314 326.033" stroke="#DAEFFF" stroke-width="2.1628" stroke-miterlimit="10" stroke-linecap="round" stroke-linejoin="round"/>
<path d="M92.314 315.899L102.448 326.033" stroke="#DAEFFF" stroke-width="2.1628" stroke-miterlimit="10" stroke-linecap="round" stroke-linejoin="round"/>
<path d="M107.515 168.735L97.3811 178.87" stroke="#DAEFFF" stroke-width="2.1628" stroke-miterlimit="10" stroke-linecap="round" stroke-linejoin="round"/>
<path d="M97.3811 168.735L107.515 178.87" stroke="#DAEFFF" stroke-width="2.1628" stroke-miterlimit="10" stroke-linecap="round" stroke-linejoin="round"/>
<path d="M436.221 283.611L426.086 293.746" stroke="#DAEFFF" stroke-width="2.1628" stroke-miterlimit="10" stroke-linecap="round" stroke-linejoin="round"/>
<path d="M426.086 283.611L436.221 293.746" stroke="#DAEFFF" stroke-width="2.1628" stroke-miterlimit="10" stroke-linecap="round" stroke-linejoin="round"/>
<path d="M148.623 110.896C145.391 110.896 142.433 112.059 140.136 113.985C137.79 106.923 131.142 101.825 123.293 101.825C114.506 101.825 107.228 108.214 105.806 116.596C104.88 116.331 103.905 116.18 102.893 116.18C97.05 116.18 92.314 120.917 92.314 126.759C92.314 132.134 96.326 136.562 101.516 137.239V137.339H148.623C155.925 137.339 161.845 131.42 161.845 124.117C161.845 116.816 155.925 110.896 148.623 110.896Z" stroke="#DAEFFF" stroke-width="2.2614" stroke-miterlimit="10" stroke-linecap="round" stroke-linejoin="round"/>
<path d="M393.758 178.152C396.106 178.152 398.255 178.997 399.924 180.396C401.628 175.266 406.458 171.562 412.16 171.562C418.544 171.562 423.831 176.204 424.864 182.293C425.537 182.1 426.245 181.991 426.98 181.991C431.225 181.991 434.666 185.432 434.666 189.677C434.666 193.582 431.752 196.799 427.981 197.29V197.362H393.759C388.454 197.362 384.154 193.061 384.154 187.757C384.154 182.453 388.453 178.152 393.758 178.152Z" stroke="#DAEFFF" stroke-width="2.1628" stroke-miterlimit="10" stroke-linecap="round" stroke-linejoin="round"/>
<path d="M440.942 359.848C438.973 359.848 437.171 360.557 435.771 361.73C434.342 357.428 430.291 354.321 425.509 354.321C420.155 354.321 415.721 358.214 414.855 363.321C414.291 363.16 413.697 363.068 413.08 363.068C409.52 363.068 406.634 365.954 406.634 369.514C406.634 372.789 409.078 375.487 412.241 375.899V375.96H440.941C445.39 375.96 448.997 372.354 448.997 367.905C448.997 363.455 445.391 359.848 440.942 359.848Z" stroke="#DAEFFF" stroke-width="2.1628" stroke-miterlimit="10" stroke-linecap="round" stroke-linejoin="round"/>
<path d="M51.406 342.849C53.754 342.849 55.903 343.694 57.572 345.093C59.276 339.963 64.106 336.259 69.808 336.259C76.192 336.259 81.479 340.901 82.512 346.99C83.185 346.797 83.893 346.688 84.628 346.688C88.873 346.688 92.314 350.129 92.314 354.374C92.314 358.279 89.4 361.496 85.629 361.987V362.059H51.406C46.101 362.059 41.801 357.759 41.801 352.454C41.801 347.149 46.101 342.849 51.406 342.849Z" stroke="#DAEFFF" stroke-width="2.1628" stroke-miterlimit="10" stroke-linecap="round" stroke-linejoin="round"/>
<path d="M161.845 104.553C161.845 104.553 222.285 55.2756 304.405 77.9776C390.668 101.825 407.936 163.335 407.936 163.335" stroke="#DAEFFF" stroke-width="2.1628" stroke-miterlimit="10" stroke-linecap="round" stroke-linejoin="round" stroke-dasharray="3.27 7.62"/>
<path d="M70.5861 247.775C47.1551 251.409 35.3761 301.138 61.7321 320.879" stroke="#DAEFFF" stroke-width="2.0166" stroke-miterlimit="10" stroke-linecap="round" stroke-linejoin="round" stroke-dasharray="3.05 7.11"/>
<path d="M365.617 391.261C365.617 391.261 405.755 408.807 423.349 384.328" stroke="#DAEFFF" stroke-width="2.1628" stroke-miterlimit="10" stroke-linecap="round" stroke-linejoin="round" stroke-dasharray="3.27 7.62"/>
<path d="M174.666 191.499V166.153" stroke="#DAEFFF" stroke-width="2.1628" stroke-miterlimit="10" stroke-linecap="round" stroke-linejoin="round"/>
<path d="M168.548 191.499V178.87" stroke="#DAEFFF" stroke-width="2.1628" stroke-miterlimit="10" stroke-linecap="round" stroke-linejoin="round"/>
<path d="M267.823 197.363V178.826" stroke="#DAEFFF" stroke-width="2.1628" stroke-miterlimit="10" stroke-linecap="round" stroke-linejoin="round"/>
<path d="M260.873 195.782V188.094" stroke="#DAEFFF" stroke-width="2.1628" stroke-miterlimit="10" stroke-linecap="round" stroke-linejoin="round"/>
<path d="M254.707 195.782V182.933" stroke="#DAEFFF" stroke-width="2.1628" stroke-miterlimit="10" stroke-linecap="round" stroke-linejoin="round"/>
<path d="M180.547 191.499V178.826" stroke="#DAEFFF" stroke-width="2.1628" stroke-miterlimit="10" stroke-linecap="round" stroke-linejoin="round"/>
<path d="M348.548 195.027V189.357" stroke="#DAEFFF" stroke-width="2.1628" stroke-miterlimit="10" stroke-linecap="round" stroke-linejoin="round"/>
<path d="M342.43 195.027V181.217" stroke="#DAEFFF" stroke-width="2.1628" stroke-miterlimit="10" stroke-linecap="round" stroke-linejoin="round"/>
<path d="M354.429 195.027V185.163" stroke="#DAEFFF" stroke-width="2.1628" stroke-miterlimit="10" stroke-linecap="round" stroke-linejoin="round"/>
</g>
<defs>
<clipPath id="clip0_1416_584">
<rect width="500" height="500" fill="white"/>
</clipPath>
</defs>
</svg>
