<svg width="22" height="24" viewBox="0 0 22 24" fill="none" xmlns="http://www.w3.org/2000/svg">
<path d="M9.22376 1.37253C10.3226 0.736361 11.6777 0.736362 12.7766 1.37253L19.5228 5.27823C20.6177 5.91212 21.2918 7.08141 21.2918 8.34656V16.1749C21.2918 17.4401 20.6177 18.6094 19.5228 19.2433L12.7766 23.149C11.6777 23.7851 10.3226 23.7851 9.22376 23.149L2.47755 19.2433C1.38265 18.6094 0.708496 17.4401 0.708496 16.1749V8.34656C0.708496 7.08141 1.38265 5.91212 2.47755 5.27823L9.22376 1.37253ZM11.0002 15.5108C12.7951 15.5108 14.2502 14.0557 14.2502 12.2608C14.2502 10.4658 12.7951 9.01075 11.0002 9.01075C9.20519 9.01075 7.75016 10.4658 7.75016 12.2608C7.75016 14.0557 9.20519 15.5108 11.0002 15.5108Z" fill="#90C3E7"/>
</svg>
