<svg width="25" height="53" viewBox="0 0 25 53" fill="none" xmlns="http://www.w3.org/2000/svg">
<path d="M10.5157 8.00761C9.66897 8.8543 10.4451 9.91267 10.939 10.336C8.22959 8.81197 9.38674 7.16091 10.304 6.52589C10.939 6.10254 12.5054 5.8062 13.6908 8.00761C14.8761 10.209 12.7735 12.1705 11.574 12.8761C10.2334 13.1583 7.17122 13.1301 5.64717 10.7594C3.7421 7.79593 4.37713 4.62083 5.64717 2.92744C6.91721 1.23405 10.939 -0.882692 14.7491 0.387351C18.5593 1.65739 20.2527 5.04417 20.041 8.64263C19.8293 12.2411 16.4425 13.9345 13.0557 16.6862C10.3463 18.8876 11.7857 21.837 12.8441 23.0364C12.0679 23.107 10.3887 22.6978 9.88064 20.4964C9.24562 17.7446 12.6324 15.2045 13.6908 13.9345C14.7491 12.6644 16.2309 12.6644 17.5009 9.48932C18.7709 6.31422 16.8659 4.19748 15.1725 2.92744C13.4791 1.65739 10.939 1.23405 8.18726 2.50409C5.43551 3.77413 4.16546 9.48932 7.76392 11.1827C11.3624 12.8761 11.9974 9.91267 12.2091 9.48932C12.4207 9.06598 11.574 6.94924 10.5157 8.00761Z" fill="#90C3E7"/>
<path d="M15.1725 22.1898C14.7491 21.0608 14.4951 18.295 16.8659 16.2629C15.1725 17.3213 12.4631 19.9883 15.1725 22.1898Z" fill="#90C3E7"/>
<path d="M3.95362 26.6349C5.9998 27.9755 12.0819 29.8524 20.0408 26.6349M3.95362 26.6349C11.5739 24.0948 17.8535 25.5766 20.0408 26.6349M3.95362 26.6349C2.98512 26.9578 0.238281 28.9909 1.20186 29.3867C2.16543 29.7824 3.47477 30.2168 5.01198 30.5909M20.0408 26.6349C20.6758 26.8466 22.7926 28.9634 22.3692 29.3867C21.9459 29.81 20.0057 30.4452 18.7708 30.7779M5.01198 30.5909C6.07035 32.8002 7.93308 38.8697 6.91705 45.4739C11.4892 47.6753 15.4546 46.3912 16.8657 45.4739C16.3577 36.8376 17.9241 32.0781 18.7708 30.7779M5.01198 30.5909C8.80196 31.5133 13.9771 32.0694 18.7708 30.7779" stroke="#90C3E7" stroke-width="0.423348"/>
<path d="M6.07032 42.0871C-7.68847 47.5906 29.1428 53.0942 18.7708 42.0871C41.4199 60.9261 -15.0971 50.0461 6.07032 42.0871Z" fill="#90C3E7"/>
<path d="M20.0408 26.6349C12.0819 29.8524 5.9998 27.9755 3.95362 26.6349C2.98512 26.9578 0.238281 28.991 1.20186 29.3867C2.16543 29.7825 3.47477 30.2168 5.01198 30.5909C8.80196 31.5133 13.9771 32.0695 18.7708 30.778C20.0057 30.4453 21.9459 29.81 22.3692 29.3867C22.7926 28.9634 20.6758 26.8466 20.0408 26.6349Z" fill="#90C3E7"/>
<path d="M17.309 31.9341L17.3244 31.8927L17.2825 31.9067C16.6507 32.1173 15.5775 32.2231 14.4575 32.2496C13.3382 32.276 12.1751 32.2231 11.365 32.1174L11.2247 32.0991L11.3535 32.1577C13.4737 33.1214 15.2526 32.9256 16.1949 32.8219C16.2729 32.8133 16.3452 32.8053 16.4115 32.7987C15.8323 33.7335 15.5887 35.0775 15.5584 36.3291C15.543 36.9635 15.5824 37.575 15.6611 38.0989C15.7396 38.6223 15.8576 39.0597 16.0002 39.3448L16.0191 39.3353L16.0381 39.3259C15.8713 38.9924 15.8216 38.4837 15.8537 37.8752C15.8858 37.2676 15.9994 36.5637 16.1562 35.8419C16.47 34.3985 16.9565 32.886 17.309 31.9341Z" fill="#90C3E7" stroke="#90C3E7" stroke-width="0.0423348" stroke-miterlimit="16"/>
<path d="M8.19702 44.4156C9.07758 44.7959 10.2291 45.4297 13.2772 44.6691C12.1934 45.1761 9.61947 45.81 8.19702 44.4156Z" fill="#90C3E7"/>
</svg>
