<svg width="26" height="26" viewBox="0 0 26 26" fill="none" xmlns="http://www.w3.org/2000/svg">
<g clip-path="url(#clip0_1162_3417)">
<path d="M20.3628 0.842468H5.63681C2.98887 0.842468 0.842285 2.98905 0.842285 5.63699V20.363C0.842285 23.011 2.98887 25.1575 5.63681 25.1575H20.3628C23.0108 25.1575 25.1574 23.011 25.1574 20.363V5.63699C25.1574 2.98905 23.0108 0.842468 20.3628 0.842468Z" fill="#0094FF" stroke="#0094FF" stroke-width="0.684931"/>
<path d="M21.1531 8.52335C20.3275 7.10864 19.2075 5.98861 17.7929 5.16302C16.3781 4.33737 14.8336 3.92466 13.1582 3.92466C11.483 3.92466 9.938 4.3375 8.5235 5.16302C7.10879 5.98857 5.98884 7.10864 5.16316 8.52335C4.3376 9.93802 3.9248 11.4828 3.9248 13.1578C3.9248 15.1698 4.51181 16.979 5.68612 18.586C6.8603 20.193 8.37717 21.3051 10.2366 21.9222C10.453 21.9623 10.6133 21.9341 10.7174 21.8381C10.8217 21.742 10.8737 21.6217 10.8737 21.4776C10.8737 21.4535 10.8716 21.2372 10.8676 20.8284C10.8635 20.4195 10.8616 20.0629 10.8616 19.7585L10.5851 19.8064C10.4087 19.8387 10.1863 19.8524 9.91778 19.8485C9.64938 19.8447 9.37074 19.8166 9.08225 19.7643C8.79363 19.7125 8.52518 19.5922 8.27669 19.4039C8.02833 19.2155 7.85202 18.969 7.7478 18.6646L7.62758 18.388C7.54744 18.2038 7.42128 17.9992 7.24893 17.7749C7.07657 17.5504 6.90228 17.3982 6.72597 17.3181L6.64179 17.2578C6.5857 17.2178 6.53366 17.1695 6.48552 17.1134C6.43744 17.0574 6.40143 17.0013 6.37739 16.9451C6.3533 16.8889 6.37326 16.8428 6.43748 16.8066C6.50169 16.7704 6.61775 16.7529 6.78614 16.7529L7.0265 16.7888C7.18682 16.8209 7.38511 16.9169 7.62164 17.0773C7.85804 17.2376 8.05238 17.4459 8.20469 17.7023C8.38912 18.031 8.61134 18.2815 8.87195 18.4538C9.13236 18.6262 9.39491 18.7122 9.65936 18.7122C9.92381 18.7122 10.1522 18.6922 10.3446 18.6523C10.5369 18.6122 10.7172 18.5519 10.8856 18.4718C10.9578 17.9346 11.1542 17.5219 11.4747 17.2334C11.0179 17.1854 10.6072 17.1131 10.2424 17.017C9.87778 16.9207 9.50103 16.7645 9.11236 16.5479C8.72347 16.3315 8.40087 16.0629 8.14447 15.7425C7.88802 15.4219 7.67756 15.0009 7.51337 14.4801C7.3491 13.959 7.26695 13.3579 7.26695 12.6767C7.26695 11.7067 7.58361 10.8813 8.21681 10.1999C7.92019 9.47069 7.9482 8.65317 8.30091 7.74748C8.53335 7.67527 8.87806 7.72946 9.33486 7.90973C9.79175 8.09009 10.1263 8.24459 10.3388 8.37268C10.5512 8.50074 10.7215 8.60925 10.8498 8.69726C11.5953 8.48895 12.3647 8.38477 13.1581 8.38477C13.9515 8.38477 14.7211 8.48895 15.4667 8.69726L15.9235 8.40886C16.2359 8.21642 16.6049 8.04006 17.0294 7.87975C17.4542 7.71952 17.779 7.67539 18.0036 7.74761C18.3641 8.65334 18.3962 9.47081 18.0995 10.2001C18.7327 10.8814 19.0495 11.707 19.0495 12.6768C19.0495 13.3581 18.967 13.961 18.803 14.4861C18.6388 15.0112 18.4265 15.4317 18.1661 15.7485C17.9054 16.0652 17.5807 16.3317 17.1921 16.548C16.8033 16.7644 16.4264 16.9207 16.0619 17.0169C15.6971 17.1132 15.2864 17.1855 14.8296 17.2336C15.2462 17.5942 15.4546 18.1633 15.4546 18.9407V21.4772C15.4546 21.6213 15.5047 21.7416 15.605 21.8378C15.7052 21.9337 15.8634 21.962 16.0798 21.9218C17.9395 21.3048 19.4564 20.1927 20.6305 18.5856C21.8045 16.9787 22.3917 15.1694 22.3917 13.1575C22.3913 11.4827 21.9783 9.93802 21.1531 8.52335Z" fill="black"/>
</g>
<defs>
<clipPath id="clip0_1162_3417">
<rect width="25" height="25" fill="white" transform="translate(0.5 0.5)"/>
</clipPath>
</defs>
</svg>
