<svg width="25" height="25" viewBox="0 0 25 25" fill="none" xmlns="http://www.w3.org/2000/svg">
<path d="M3.08626 18.9453C2.92133 20.3081 2.58713 21.6319 2.08366 22.9166H22.917C22.4135 21.6319 22.0793 20.3081 21.9144 18.9453C21.7495 17.5824 21.6496 16.2153 21.6149 14.8437C20.791 15.035 20.3391 15.0773 19.5316 15.026C19.5663 16.0156 19.6271 16.9922 19.7139 17.9557C19.8007 18.9193 19.9482 19.8785 20.1566 20.8333H17.3701C17.2312 19.7916 17.114 18.7587 17.0186 17.7344C16.9231 16.71 16.8493 15.6771 16.7972 14.6354C15.9457 15.065 15.5012 15.1271 14.7399 15.0781C14.792 16.0503 14.8571 17.0139 14.9352 17.9687C15.0133 18.9236 15.1219 19.8785 15.2607 20.8333H9.73991C9.8788 19.8785 9.98731 18.9236 10.0654 17.9687C10.1436 17.0139 10.2087 16.0503 10.2607 15.0781C9.37505 15.0394 8.92567 14.9407 8.20345 14.6354C8.15137 15.6771 8.08192 16.71 7.99512 17.7344C7.90831 18.7587 7.78678 19.7916 7.63053 20.8333H4.84408C5.05241 19.8785 5.19998 18.9193 5.28678 17.9557C5.37359 16.9922 5.43435 16.0156 5.46908 15.026C4.68893 15.1682 4.22855 15.1227 3.38574 14.8437C3.35102 16.2153 3.25119 17.5824 3.08626 18.9453Z" fill="#0094FF"/>
<path d="M1.04199 9.37498V11.4583H3.12533C3.12533 11.8923 3.27724 12.2613 3.58105 12.5651C3.88487 12.8689 4.2538 13.0208 4.68783 13.0208C5.12185 13.0208 5.49078 12.8689 5.7946 12.5651C6.09842 12.2613 6.25033 11.8923 6.25033 11.4583H8.33366C8.33366 11.8923 8.48557 12.2613 8.78939 12.5651C9.09321 12.8689 9.46213 13.0208 9.89616 13.0208C10.3302 13.0208 10.6991 12.8689 11.0029 12.5651C11.3067 12.2613 11.4587 11.8923 11.4587 11.4583H13.542C13.542 11.8923 13.6939 12.2613 13.9977 12.5651C14.3015 12.8689 14.6705 13.0208 15.1045 13.0208C15.5385 13.0208 15.9074 12.8689 16.2113 12.5651C16.5151 12.2613 16.667 11.8923 16.667 11.4583H18.7503C18.7503 11.8923 18.9022 12.2613 19.2061 12.5651C19.5099 12.8689 19.8788 13.0208 20.3128 13.0208C20.7469 13.0208 21.1158 12.8689 21.4196 12.5651C21.7234 12.2613 21.8753 11.8923 21.8753 11.4583H23.9587V9.37498C21.9621 8.71526 19.9265 7.70831 17.8519 6.35415C15.7772 4.99998 13.9934 3.57637 12.5003 2.08331C11.0073 3.57637 9.22342 4.99998 7.14876 6.35415C5.07411 7.70831 3.03852 8.71526 1.04199 9.37498Z" fill="#0094FF"/>
<path d="M15.1956 7.01821C16.2807 7.8255 17.5003 8.61109 18.8545 9.37498H12.5003H6.14614C7.50031 8.61109 8.71993 7.8255 9.805 7.01821C10.8901 6.21092 11.7885 5.50345 12.5003 4.89581C13.2121 5.50345 14.1106 6.21092 15.1956 7.01821Z" fill="#050505"/>
<path d="M1.70605 13.0989C2.14876 13.7066 2.70866 14.1406 3.38574 14.401C4.22855 14.68 4.68893 14.7254 5.46908 14.5833C5.8163 14.4965 6.14182 14.3706 6.44564 14.2057C6.74946 14.0408 7.03158 13.8281 7.29199 13.5677C7.43088 13.7066 7.57845 13.8238 7.7347 13.9193C7.89095 14.0147 8.0472 14.1059 8.20345 14.1927C8.92567 14.498 9.37505 14.5967 10.2607 14.6354C10.6774 14.6007 11.0811 14.4922 11.4717 14.3099C11.8623 14.1276 12.2052 13.8889 12.5003 13.5937C12.7955 13.8889 13.1297 14.1276 13.5029 14.3099C13.8762 14.4922 14.2885 14.6007 14.7399 14.6354C15.5868 14.6108 16.0344 14.5097 16.7972 14.1927C16.9535 14.1059 17.1097 14.0147 17.266 13.9193C17.4222 13.8238 17.5698 13.7066 17.7087 13.5677C17.9517 13.8281 18.2295 14.0408 18.542 14.2057C18.8545 14.3706 19.1844 14.4965 19.5316 14.5833C20.3391 14.6346 20.791 14.5923 21.6149 14.401C22.292 14.1406 22.8519 13.7066 23.2946 13.0989C23.7373 12.4913 23.9587 11.7969 23.9587 11.0156H21.8753C21.8753 11.4496 21.7234 11.8186 21.4196 12.1224C21.1158 12.4262 20.7469 12.5781 20.3128 12.5781C19.8788 12.5781 19.5099 12.4262 19.2061 12.1224C18.9022 11.8186 18.7503 11.4496 18.7503 11.0156H16.667C16.667 11.4496 16.5151 11.8186 16.2113 12.1224C15.9074 12.4262 15.5385 12.5781 15.1045 12.5781C14.6705 12.5781 14.3015 12.4262 13.9977 12.1224C13.6939 11.8186 13.542 11.4496 13.542 11.0156H11.4587C11.4587 11.4496 11.3067 11.8186 11.0029 12.1224C10.6991 12.4262 10.3302 12.5781 9.89616 12.5781C9.46213 12.5781 9.09321 12.4262 8.78939 12.1224C8.48557 11.8186 8.33366 11.4496 8.33366 11.0156H6.25033C6.25033 11.4496 6.09842 11.8186 5.7946 12.1224C5.49078 12.4262 5.12185 12.5781 4.68783 12.5781C4.2538 12.5781 3.88487 12.4262 3.58105 12.1224C3.27724 11.8186 3.12533 11.4496 3.12533 11.0156H1.04199C1.04199 11.7969 1.26335 12.4913 1.70605 13.0989Z" fill="#0094FF" fill-opacity="0.4"/>
</svg>
