<svg width="37" height="37" viewBox="0 0 37 37" fill="none" xmlns="http://www.w3.org/2000/svg">
<g clip-path="url(#clip0_1162_3560)">
<path d="M30.9938 0.827637H6.1C3.15391 0.827637 0.765625 3.21592 0.765625 6.16201V31.0558C0.765625 34.0019 3.15391 36.3901 6.1 36.3901H30.9938C33.9398 36.3901 36.3281 34.0019 36.3281 31.0558V6.16201C36.3281 3.21592 33.9398 0.827637 30.9938 0.827637Z" fill="#0094FF"/>
<path d="M9.30902 28.1245L10.2814 23.6098C9.0316 21.6384 8.54403 19.2788 8.91022 16.9736C9.2764 14.6683 10.4712 12.5759 12.2703 11.0889C14.0695 9.60192 16.3495 8.82253 18.6824 8.89697C21.0154 8.97141 23.241 9.89458 24.9417 11.4933C26.6425 13.0919 27.7014 15.2563 27.9199 17.5801C28.1383 19.904 27.5013 22.2278 26.1283 24.1154C24.7554 26.0031 22.7408 27.3249 20.4626 27.8328C18.1844 28.3407 15.7991 27.9999 13.7543 26.8743L9.30902 28.1245Z" fill="#0094FF" stroke="black" stroke-width="1.80591"/>
<path d="M22.1584 19.7896C21.95 19.6507 21.7417 19.5813 21.5333 19.8591L20.6998 20.9704C20.4914 21.1093 20.3525 21.1788 20.0747 21.0399C19.0328 20.4842 17.5742 19.8591 16.3239 17.7754C16.2545 17.4975 16.3934 17.3586 16.5323 17.2197L17.1574 16.2473C17.2963 16.1084 17.2269 15.9695 17.1574 15.8305L16.3239 13.8163C16.1156 13.2606 15.9072 13.33 15.6988 13.33H15.1431C15.0042 13.33 14.7264 13.3995 14.4486 13.6773C12.9205 15.2054 13.5456 17.3586 14.6569 18.7478C14.8653 19.0256 16.2545 21.5261 19.2412 22.8458C21.4638 23.8182 21.95 23.6793 22.5752 23.5404C23.3392 23.4709 24.1032 22.8458 24.4505 22.2207C24.52 22.0123 24.8673 21.1093 24.5894 20.9704" fill="black"/>
</g>
<defs>
<clipPath id="clip0_1162_3560">
<rect width="35.5625" height="35.5625" fill="white" transform="translate(0.765625 0.827637)"/>
</clipPath>
</defs>
</svg>
