<svg width="14" height="21" viewBox="0 0 14 21" fill="none" xmlns="http://www.w3.org/2000/svg">
<g clip-path="url(#clip0_1334_539)">
<path d="M5.44339 7.37043C4.68421 8.12962 5.38012 9.0786 5.82298 9.45819C3.39359 8.09166 4.43114 6.61125 5.25359 6.04186C5.82298 5.66227 7.22748 5.39655 8.29033 7.37043C9.35318 9.34431 7.46788 11.1031 6.39237 11.7357C5.19033 11.9888 2.44461 11.9635 1.07808 9.83778C-0.630092 7.18064 -0.060703 4.33369 1.07808 2.81533C2.21685 1.29696 5.82298 -0.601007 9.23931 0.53777C12.6556 1.67655 14.174 4.71329 13.9842 7.93982C13.7944 11.1664 10.7577 12.6847 7.72094 15.1521C5.29155 17.126 6.58216 19.7704 7.53115 20.846C6.83523 20.9092 5.32951 20.5423 4.874 18.5684C4.30461 16.1011 7.34135 13.8235 8.29033 12.6847C9.23931 11.5459 10.5679 11.5459 11.7067 8.69901C12.8454 5.85206 11.1373 3.9541 9.6189 2.81533C8.10053 1.67655 5.82298 1.29696 3.35564 2.43573C0.888294 3.57451 -0.25049 8.69901 2.97605 10.2174C6.20258 11.7357 6.77197 9.0786 6.96177 8.69901C7.15156 8.31941 6.39237 6.42145 5.44339 7.37043Z" fill="url(#paint0_linear_1334_539)"/>
<path d="M9.61901 20.0868C9.23942 19.0745 9.01167 16.5945 11.1374 14.7725C9.61901 15.7215 7.18962 18.1129 9.61901 20.0868Z" fill="url(#paint1_linear_1334_539)"/>
</g>
<defs>
<linearGradient id="paint0_linear_1334_539" x1="6.99999" y1="0.190399" x2="6.99999" y2="20.8526" gradientUnits="userSpaceOnUse">
<stop stop-color="#0094FF"/>
<stop offset="1" stop-color="#9747FF"/>
</linearGradient>
<linearGradient id="paint1_linear_1334_539" x1="9.86289" y1="14.7725" x2="9.86289" y2="20.0868" gradientUnits="userSpaceOnUse">
<stop stop-color="#0094FF"/>
<stop offset="1" stop-color="#9747FF"/>
</linearGradient>
<clipPath id="clip0_1334_539">
<rect width="14" height="21" fill="white"/>
</clipPath>
</defs>
</svg>
