<svg width="37" height="37" viewBox="0 0 37 37" fill="none" xmlns="http://www.w3.org/2000/svg">
<g clip-path="url(#clip0_1162_3590)">
<path d="M29.8606 0.655762C31.8686 0.655762 33.5073 2.27391 33.5405 4.29158L33.541 4.35411V36.562L29.6811 33.1509L27.5088 31.1402L25.2108 29.0037L26.1623 32.3251H5.80344C3.79544 32.3251 2.15679 30.7069 2.12356 28.6893L2.12305 28.6267V4.35411C2.12305 2.32833 3.7412 0.689511 5.74145 0.656276L5.80344 0.655762H29.8606ZM15.2647 9.23736L15.0852 9.02177L14.983 9.02298C14.4931 9.03757 12.3154 9.20073 10.0404 10.907L9.95341 11.0723C9.5029 11.9511 7.45513 16.2287 7.45513 21.3737L7.49247 21.4332C7.7465 21.8222 9.32028 23.9882 12.9308 24.1025L13.4596 23.4539C13.6688 23.1956 13.9119 22.8933 14.1337 22.6124C12.0408 21.9862 11.1429 20.7247 11.0096 20.5218L10.9919 20.494L11.0657 20.5432C11.1467 20.5958 11.2926 20.687 11.4946 20.7992C11.5125 20.8171 11.5305 20.8351 11.5664 20.853C11.6203 20.8889 11.6741 20.9069 11.728 20.9428C12.1768 21.1941 12.6256 21.3916 13.0385 21.5532C13.7746 21.8405 14.6543 22.1277 15.6777 22.3252C16.9857 22.5693 18.5139 22.661 20.1801 22.3698L20.3275 22.3431C21.1713 22.1995 22.0331 21.9482 22.9307 21.5712C23.5591 21.3378 24.2593 20.9967 24.9953 20.5119L24.9659 20.5567C24.794 20.8079 23.8544 22.0528 21.7458 22.6483L22.0427 23.0204C22.4961 23.5835 22.9307 24.1025 22.9307 24.1025C26.8984 23.9769 28.4244 21.3737 28.4244 21.3737C28.4244 15.5928 25.8391 10.907 25.8391 10.907C23.6158 9.23951 21.4854 9.04579 20.9325 9.02423L20.7943 9.02177L20.543 9.30917C23.2495 10.137 24.6712 11.2896 24.9584 11.54L25.0133 11.5892C23.1462 10.5659 21.3149 10.0632 19.6094 9.86572C18.3168 9.72209 17.078 9.758 15.9829 9.90162C15.8751 9.90162 15.7854 9.91957 15.6777 9.93753L15.5767 9.94701C14.8957 10.0163 13.4272 10.267 11.6023 11.0686L11.3414 11.1902C11.0153 11.3446 10.7777 11.4658 10.6501 11.5325L10.5431 11.5892C10.5431 11.5892 12.0035 10.1991 15.1683 9.26551L15.2647 9.23736ZM14.5825 15.7184C15.6058 15.7184 16.4317 16.6161 16.4137 17.7112C16.4137 18.8064 15.6058 19.704 14.5825 19.704C13.5771 19.704 12.7513 18.8064 12.7513 17.7112C12.7513 16.6161 13.5592 15.7184 14.5825 15.7184ZM21.1354 15.7184C22.1587 15.7184 22.9666 16.6161 22.9666 17.7112C22.9666 18.8064 22.1587 19.704 21.1354 19.704C20.13 19.704 19.3042 18.8064 19.3042 17.7112C19.3042 16.6161 20.1121 15.7184 21.1354 15.7184Z" fill="#0094FF"/>
</g>
<defs>
<clipPath id="clip0_1162_3590">
<rect width="35.9062" height="35.9062" fill="white" transform="translate(0.328125 0.655762)"/>
</clipPath>
</defs>
</svg>
